<?xml version="1.0" encoding="UTF-8"?> <svg xmlns="http://www.w3.org/2000/svg" role="img" aria-hidden="true" viewBox="0 0 154 176"><path fill="#fed8b5" d="M94.59 82.64c.44 1.83.78 3.71.09 5-1.78-1.65-2-7.81-2.81-10.56-15.07 32.1-30.85.24-31.14 0-.84 3.74.5 8.2-2.12 11.12-.06-.36 0-.67 0-.33a46 46 0 0 0 .55-6.58 1.13 1.13 0 0 1-.13.29c-1 1.28-8.42 4-8.42 7s12.39 11.59 26.8 12.91c12.79 1 21.69-4.42 29.43-11.55.94-1.12-10.45-6.52-12.25-7.3z"></path><path fill="#eca96b" d="M58.61 88.21c2.62-2.92 1.28-7.38 2.12-11.12.29.24 16.07 32.1 31.14 0 .82 2.75 1 8.91 2.81 10.56.69-1.3.35-3.18-.09-5h-.07C93 82 93 68.37 93 68.37l-2-.05C84.59 73 79.46 77.4 70.58 76.17c-5-.69-9.27-2.53-11.89-6.66.35 3.36 1 10.12.42 11.79a46 46 0 0 1-.55 6.58c.08-.34-.01-.03.05.33z"></path><path fill="#fed8b5" d="M72.58 1c-18.08.8-23.75 17.58-24.79 26.07s3.93 34.68 5.38 37.71C54.71 68 62.37 82 76.28 82.24c12.26.22 20.32-15.88 20.78-17.46 1.28-4.49 3.32-29.5 2.94-34C98.23 9.86 85.4.49 72.58 1zM139.67 128.08l-.46-1.21-.16.1c.21.36.41.73.62 1.11zM134.58 141.64c.28 2.21-2.07 3.44 2.48 4.33 3.28.64 7.46 1.55 10.67 3.43l-5.65-15c.08.43.17.86.22 1.32-3.71 2.22-6.39 3.46-7.72 5.92z"></path><path fill="#eca96b" d="M137.06 146c-4.55-.89-2.2-2.12-2.48-4.33 1.33-2.46 4-3.7 7.72-5.87-.05-.46-.14-.89-.22-1.32l-2.41-6.37c-.21-.38-.41-.75-.62-1.11a25 25 0 0 1-4.55 2.47l-9 5.8a85.84 85.84 0 0 1 2.57 8.66c.7 3.24.25 3.92 3.49 5 4.21 1.44 9.14 1.74 13.51 2.71 1.22.27 2.62.89 4 1.18l-1.29-3.39c-3.26-1.91-7.44-2.82-10.72-3.43z"></path><path fill="#fed8b5" d="M24.84 143.48c-.83-2.58-4.89-2.94-7-4.13-2.92-1.62-3.18-1.17-4.37-4.19a.17.17 0 0 1-.07 0l-6.15 16 .36-.23a78.19 78.19 0 0 1 17.23-7.45z"></path><path fill="#eca96b" d="M17.22 125.16l-3.85 10a.17.17 0 0 0 .07 0c1.19 3 1.45 2.57 4.37 4.19 2.14 1.19 6.2 1.55 7 4.13A78.19 78.19 0 0 0 7.58 151l-.36.23-2.14 5.57a87.07 87.07 0 0 1 9.66-5.13c3.82-1.61 7.79-3.35 11.68-4.72 2.16-.75 4.78-1 6.7-2.31.52-.37 2-1.52 3.55-2.83l2.3-4.48z"></path><path fill="#fff" d="M64.19 48.48A2.46 2.46 0 0 1 66.66 51a2.24 2.24 0 0 1-.06.52 14.76 14.76 0 0 0 2.55-1.1c-2.25-5.17-8.66-6.74-10.91 0a10.21 10.21 0 0 0 3.66 1.46 2.34 2.34 0 0 1-.17-.88 2.46 2.46 0 0 1 2.46-2.52z"></path><path fill="#280415" d="M66.6 51.47a2.24 2.24 0 0 0 .06-.52 2.47 2.47 0 1 0-4.93 0 2.34 2.34 0 0 0 .17.88 9.68 9.68 0 0 0 4.7-.36z"></path><path fill="#fff" d="M84.42 49.12a1.14 1.14 0 0 1-.11-.49 1.06 1.06 0 0 1 1-1.12.92.92 0 0 1 .75.41 2.84 2.84 0 0 1 .72-.1 2.78 2.78 0 0 1 2.78 2.77A10.76 10.76 0 0 0 92 49.47c-2.25-6.74-8.67-5.17-10.91 0a14.68 14.68 0 0 0 2.91 1.2v-.08a2.65 2.65 0 0 1 .42-1.47z"></path><path fill="#280415" d="M89.53 50.64a2.78 2.78 0 0 0-2.78-2.77 2.84 2.84 0 0 0-.72.1 1.23 1.23 0 0 1 .23.71 1.06 1.06 0 0 1-1 1.13 1 1 0 0 1-.87-.64 2.65 2.65 0 0 0-.39 1.42v.08a9.42 9.42 0 0 0 5.53-.03z"></path><path fill="#fff" d="M85.29 47.51a1.06 1.06 0 0 0-1 1.12 1.14 1.14 0 0 0 .11.49 2.74 2.74 0 0 1 1.6-1.2.92.92 0 0 0-.71-.41z"></path><path fill="#fff" d="M84.42 49.12a1 1 0 0 0 .87.64 1.06 1.06 0 0 0 1-1.13 1.23 1.23 0 0 0-.23-.71 2.74 2.74 0 0 0-1.64 1.2z"></path><path fill="#77b227" d="M119.21 176H37.82l-.2-39.49c-7.69 3.1-24.44-9.43-25.21-11.93s2.7-4.43 2.7-4.43 9.81-20.4 15.2-24.24S53.4 84.17 53.4 84.17 58.82 98.41 76.69 98s20.58-14.21 20.58-14.21 25.59 6.54 32.53 14.82 12.7 27.88 12.7 27.88c-8 6.78-16 13.1-24.79 11.55z"></path><path fill="#fed8b5" d="M42.05 35.3c-3.61 1.87-.78 8.85-.78 8.85a63.78 63.78 0 0 1 4.23 7.69c1.16 2.9 1.16 4.62 2.89 5.4 1.49.66 3.84-1 3.84-1l-2.87-14.79s-3.13-8.31-7.31-6.15zM106.75 32.92c3.77 1.5 1.35 8.79 1.35 8.79a63.21 63.21 0 0 0-3.73 7.95c-1 3-.85 4.69-2.53 5.57-1.45.76-3.91-.71-3.91-.71l1.93-15s2.47-8.34 6.89-6.6z"></path><path fill="#eca96b" d="M77.28 43.22c2.09 16.67 2.2 16.43 1.89 17.4A1.74 1.74 0 0 1 77.7 62c-1.39.08-2.06-2-3.49-2.06-.53 0-1.08.23-1.59 0a1.31 1.31 0 0 1-.76-1.37 3.72 3.72 0 0 1 .6-1.57c-1.48-.13-2.59 2.47.18 4 .82.45 1.09-.44 1.93 0 1 .52 2.31 3.72 5.17 2.21 1.33-.7 1.22-2.63 1-4.13q-1.3-7.5-2.58-15c-.16-1.4-1.02-1.81-.88-.86z"></path><path fill="#aa6d2a" d="M69 36.06c-5.77-.16-10.59 4.43-12.13 5.78s-2.3-1.74-1.15-3.1 9.43-5.39 11.37-5.17S69 36.06 69 36.06zM80.51 33.37c-3.27.39-4 4.43 0 3.65s12.7 1.36 13.43 2.51S97 39 94.33 37s-10.52-4-13.82-3.63z"></path><path fill="#eca96b" d="M65.67 65.15a1.09 1.09 0 0 0-.46 1.47.75.75 0 0 0 .07.12c.7 1.09 9.23 4.47 9.93 2.77.6-1.43-1.75 2.49-9.54-4.36z"></path><path fill="#280415" d="M69 49.7c-.66-2.07-2.52-4.23-4.72-4.27-3.27-.06-6 1.48-6 4.94.7-3.28 3-4 6-4 2.18 0 4.24 2 4.93 4a3.63 3.63 0 0 0-.21-.67zM81.65 48.87a4.13 4.13 0 0 0-.11.69c.7-2.06 2.57-4.07 4.76-4 2.92 0 4.74.9 5.63 3.92-.12-3.28-2.43-4.88-5.7-4.82-2.23-.02-3.92 2.09-4.58 4.21z"></path><path fill="#eca96b" d="M100.74 128.82s-2.31 1.34-1.15 4.61 10.77 7.89 11.9 11.15 12.51-2.7 6.54-5.17-12.11-10.41-14.62-11.36-2.67.77-2.67.77zM43.87 38.68A3.2 3.2 0 0 1 47 39.79a4.8 4.8 0 0 1 1 3.34c-.07 1.28-.52 2.57-.25 3.82A10.57 10.57 0 0 0 49 49.39a3.48 3.48 0 0 1 .52 2.61 1.22 1.22 0 0 1-.8.9.71.71 0 0 1-.87-.48v-.13c0-.43.47-.68.69-1a1.61 1.61 0 0 0-.54-1.87A10 10 0 0 1 46.6 48c-1.29-2 1-4.82-.18-6.8a2.19 2.19 0 0 0-3.75 2.26 2.58 2.58 0 0 0 .45.54c-1.62-1.37-1.6-4.71.75-5.32zM106.62 36a2.16 2.16 0 0 0-2.07-.27 5.06 5.06 0 0 0-1.78 1.22c-1.9 1.82-3.39 4.5-2.62 7a6.78 6.78 0 0 1 .67 2.41 5 5 0 0 1-.69 1.83 2.36 2.36 0 0 0-.25 1.89c.25.61 1.18.92 1.59.39.55-.71-.51-1.73-.29-2.61.15-.62.88-.92 1.15-1.5s-.12-1.56-.55-2.24-.86-1.56-.44-2.24a4.29 4.29 0 0 0 1.81 1.51 4.24 4.24 0 0 1-.4-5.16 2.47 2.47 0 0 1 2.19-1.23 2.33 2.33 0 0 1 1.79 2.25 6.7 6.7 0 0 1-.85 3c.93-1.32 2.39-4.94.74-6.25z"></path><rect width="35.8" height="25.21" x="78.41" y="107.84" fill="#393a3c" rx="2.31"></rect><path fill="#959599" d="M78.45 113.23c-.87-6.19 1.35-5.39 3.49-5.59h28.81c2.14 0 4.26-.38 3.49 5.59-1.35-4-1.24-4.2-3.49-4H81.91c-2.18-.18-2.53-.23-3.46 4z"></path><rect width="22.32" height="43.68" x="53.78" y="102.07" fill="#393a3c" rx="2.31"></rect><path fill="#393a3c" d="M74.76 114h5.19v7.31h-5.19z"></path><circle cx="64.75" cy="114.77" r="8.41" fill="#959599"></circle><circle cx="64.75" cy="114.77" r="7.37" fill="#393a3c"></circle><path fill="#04adbf" d="M64.66 121.08a4.79 4.79 0 0 0 4.49-2.88c-1.32 1-7.07 1.22-9.24-.33.71 2.28 3.16 3.13 4.75 3.21z"></path><ellipse cx="61.5" cy="111.72" fill="#fff" rx="2.5" ry="1.63" transform="rotate(-49.71 61.5024 111.7246)"></ellipse><ellipse cx="66.08" cy="113.54" fill="#fff" rx="1.3" ry="1.05"></ellipse><circle cx="72.21" cy="141.18" r="2.07" fill="#959599"></circle><circle cx="72.21" cy="141.18" r="1.47" fill="#c94337"></circle><ellipse cx="62.92" cy="49.44" fill="#fff" rx=".87" ry="1.05"></ellipse><path fill="#fed8b5" d="M57.64 96.68c1.92-.58 2.31 4 .57 6.35s-3.27 4.23-4 4.23c.18 2.89.18 13.09.18 13.09s-.76 7.11.2 10-.41 13.65-.41 13.65-5.17 5.77-8.09 6a72.33 72.33 0 0 0-6.89 6s-8.85 16-19.62 18.86-14-.78-14-.78-5-.76-5.16-3.26S.26 156 4.77 153.69c1.15-.56 8.08-5.95 16.36-7.49 0 0 18.08-6.74 18.66-10s.19-12.89.19-12.89.51-3 1.35-6.35c1.15-4.62.57-9.3 1.15-12.13s2.88-3.85 5.58-7.31c1.44-1.84 2.7-2.12 4.62-4.43s3.27.39 3.27.39 1.54 2.12-1 5.58c1.15-1.06.77-1.8 2.69-2.38z"></path><path fill="#eca96b" d="M56 96.25c-2.49 3.46-8.53 5.47-8.93 9.86-.24 2.63.5 4.51-.6 7.12-.45 1-1.3 1.6-1.55 2.77s.33 2.62.3 3.91c2.34-4.13 2.17-8.81 2.79-13 .61-3.91 7.85-6.74 7.99-10.66zM40.91 127.36c1.61 2.63 0 7-2.13 11.27 1.15-3.28 1.14-9.62 1.57-12.4a3.65 3.65 0 0 1 .87 3"></path><path fill="#393a3c" d="M54.56 118.61s-16-3.1-16.94-.76-.76 8.47.2 9.81 16.74 1 16.74 1z"></path><path fill="#fed8b5" d="M152.11 153.25c-3.26-6.73-16-2.69-18.66-6s-3.85-17.32-7.11-19.83-3.51-8-6.2-8.26c-2.24-.26-6.2-1.72-8.66-1.72s-7.5 5-11 5.38c0 2.11.38 2.69 3.27 3.27s6-2.31 6-2.31a61.32 61.32 0 0 0 6.93 1.93l1.73 3.66s-12.32 6-12.89 7.69a4.1 4.1 0 0 0 1.8 5.3 97.34 97.34 0 0 1 13.18-8.3c-.71 2.5-5.09 4-7.23 5.42a42.83 42.83 0 0 1-5.21 3.28l.15.07c-1.29.93-2 4.83.29 6.19.09-.16.12-.2 0 0h.06c3.68-4.32 8.65-7 13.69-9.33-.26 2.37-3.87 3.1-5.69 4.34-2.26 1.56-5.57 5-8.16 5.76-.86 1.6-1 3.42 1.16 4.93 2.51 1.73 3.81 4.13 5.78 3.28 1.42-.63 3.2-1.56 4.08-2-.37-3.06-4.47-2.8-6.44-2.1 2.4-2.67 5-.91 5.66-4.56a8.72 8.72 0 0 1 .18-1.48 9.35 9.35 0 0 1-.18 1.48c0 3 2.25 3.37 5.65 3.38-1.61.43-3.45.18-5.16.68a2.7 2.7 0 0 1 .86 2.39 11.43 11.43 0 0 0 2.27 3.2c1.35 1.15 2.29.46 3.47.77 2.64.69 5.43 8.55 8.51 11.82s10.15 3.77 10.15 3.77c4.27-.26 7.32-1.75 8.09-5.58.03.04 2.91-9.77-.37-16.52z"></path><path fill="#eca96b" d="M120.5 134.1a97.34 97.34 0 0 0-13.18 8.3 7.24 7.24 0 0 0 .74.4 42.83 42.83 0 0 0 5.21-3.28c2.14-1.45 6.52-2.92 7.23-5.42zM108.5 149.06zM122.25 139.77c-5 2.32-10 5-13.69 9.33a2.53 2.53 0 0 0 .23.12c-.14.21-.27.43-.39.65 2.59-.73 5.9-4.2 8.16-5.76 1.82-1.24 5.44-1.97 5.69-4.34zM118.64 149.39a9.35 9.35 0 0 0 .18-1.48 8.72 8.72 0 0 0-.18 1.48zM119.13 153.45c1.71-.5 3.55-.25 5.16-.68-3.4 0-5.69-.43-5.65-3.38-.7 3.65-3.26 1.89-5.66 4.56 2-.7 6.07-1 6.44 2.1l.53-.29a.3.3 0 0 1 0 .08 2.7 2.7 0 0 0-.82-2.39z"></path></svg> 